<svg xmlns="http://www.w3.org/2000/svg" width="1200" height="1200" viewBox="0 0 1200 1200">
  <defs>
    <linearGradient id="g" x1="0" y1="0" x2="1" y2="1">
      <stop offset="0" stop-color="#ff4fd8" stop-opacity="0.95"/>
      <stop offset="0.55" stop-color="#45d7ff" stop-opacity="0.75"/>
      <stop offset="1" stop-color="#39d98a" stop-opacity="0.55"/>
    </linearGradient>
    <filter id="n">
      <feTurbulence type="fractalNoise" baseFrequency="0.9" numOctaves="2" stitchTiles="stitch"/>
      <feColorMatrix type="matrix" values="
        1 0 0 0 0
        0 1 0 0 0
        0 0 1 0 0
        0 0 0 0.18 0"/>
    </filter>
  </defs>

  <rect width="1200" height="1200" fill="#0b0b10"/>
  <rect x="70" y="70" width="1060" height="1060" rx="60" fill="url(#g)" opacity="0.18"/>
  <rect x="120" y="120" width="960" height="960" rx="50" fill="url(#g)" opacity="0.10"/>

  <g opacity="0.85">
    <path d="M160 880 C 290 700, 420 720, 560 580 C 690 450, 790 460, 960 260" fill="none" stroke="#45d7ff" stroke-width="14" stroke-linecap="round" opacity="0.7"/>
    <path d="M200 960 C 320 800, 450 780, 610 640 C 740 525, 860 520, 1020 360" fill="none" stroke="#ff4fd8" stroke-width="10" stroke-linecap="round" opacity="0.7"/>
    <path d="M140 650 C 260 560, 370 590, 510 520 C 660 445, 780 470, 980 420" fill="none" stroke="#39d98a" stroke-width="10" stroke-linecap="round" opacity="0.65"/>
  </g>

  <g filter="url(#n)" opacity="0.9">
    <rect width="1200" height="1200" fill="#ffffff"/>
  </g>

  <g>
    <text x="600" y="650" text-anchor="middle" font-family="ui-sans-serif, system-ui, -apple-system, Segoe UI, Roboto, Helvetica, Arial" font-size="64" font-weight="900" fill="#f5f5ff" opacity="0.86">
      ARTTRA.ART
    </text>
    <text x="600" y="725" text-anchor="middle" font-family="ui-monospace, SFMono-Regular, Menlo, Monaco, Consolas" font-size="26" font-weight="800" fill="#b7b7d0">
      placeholder image
    </text>
  </g>
</svg>

